<svg width="784" height="479" viewBox="0 0 784 479" fill="none" xmlns="http://www.w3.org/2000/svg">
<g clip-path="url(#clip0_24_602)">
<path d="M600.249 473.583C590.212 464.916 584.115 451.224 585.714 437.895C587.312 424.565 597.216 412.312 610.061 409.481C622.907 406.651 637.55 414.486 641.452 427.31C643.599 402.586 646.073 376.828 658.936 355.774C670.582 336.71 690.754 323.069 712.616 320.628C734.478 318.188 757.496 327.405 771.13 345.039C784.765 362.672 788.103 388.308 778.554 408.553C771.519 423.467 758.559 434.566 744.98 443.595C701.101 472.527 648.474 484.293 596.782 476.727L600.249 473.583Z" fill="#F2F2F2"/>
<path d="M749.511 327.916C731.472 342.931 714.924 359.724 700.105 378.052C676.913 406.638 658.145 438.687 644.457 473.085C643.455 475.594 647.442 476.686 648.433 474.205C670.83 418.302 706.585 369.03 752.427 330.896C754.485 329.183 751.553 326.217 749.511 327.916Z" fill="white"/>
<path d="M252.382 471.228C266.169 459.324 274.542 440.518 272.346 422.21C270.15 403.902 256.549 387.072 238.905 383.184C221.262 379.296 201.149 390.058 195.79 407.671C192.841 373.714 189.443 338.334 171.776 309.417C155.78 283.232 128.073 264.497 98.0461 261.145C68.0188 257.793 36.4039 270.452 17.677 294.672C-1.04993 318.892 -5.63513 354.103 7.48072 381.909C17.1427 402.393 34.9435 417.637 53.5943 430.04C113.097 469.607 186.91 486.109 257.143 475.546" fill="#F2F2F2"/>
<path d="M47.3705 271.154C72.1467 291.777 94.8763 314.843 115.23 340.017C135.588 365.165 153.51 392.271 168.746 420.956C177.262 437.047 184.913 453.6 191.663 470.543C193.039 473.99 187.563 475.49 186.202 472.082C174.245 442.212 159.453 413.61 142.037 386.689C124.706 359.865 104.869 334.822 82.8057 311.913C70.3266 298.961 57.1601 286.721 43.3658 275.247C40.5383 272.894 44.5664 268.821 47.3705 271.154L47.3705 271.154Z" fill="white"/>
<path d="M562.768 477.952H233.848V133.071C233.848 59.6954 292.263 0 364.064 0H432.552C504.353 0 562.768 59.6954 562.768 133.071V477.952Z" fill="#F2F2F2"/>
<path d="M494.281 477.951H233.848V133.071C233.776 104.955 242.488 77.5499 258.716 54.8453C259.314 54.012 259.911 53.1896 260.526 52.3762C268.376 41.8558 277.716 32.5906 288.24 24.8865C288.835 24.4445 289.432 24.0101 290.037 23.5758C298.844 17.348 308.37 12.257 318.399 8.41852C318.994 8.18784 319.6 7.95671 320.207 7.73502C329.277 4.42719 338.679 2.16134 348.24 0.979308C348.833 0.896565 349.441 0.831817 350.05 0.767068C359.367 -0.250969 368.764 -0.250969 378.081 0.767068C378.687 0.831817 379.296 0.896557 379.896 0.980194C389.454 2.1623 398.854 4.42787 407.922 7.73506C408.528 7.95675 409.135 8.18787 409.732 8.419C419.637 12.2091 429.051 17.2241 437.764 23.3523C438.369 23.7772 438.975 24.2116 439.572 24.646C445.471 28.9491 451.012 33.7431 456.138 38.979C460.249 43.1787 464.08 47.6554 467.604 52.3789C468.218 53.1897 468.814 54.0121 469.412 54.844C485.64 77.5489 494.352 104.955 494.281 133.071V477.951Z" fill="#CCCCCC"/>
<path d="M473.103 323.699C481.066 323.699 487.522 317.102 487.522 308.965C487.522 300.827 481.066 294.23 473.103 294.23C465.14 294.23 458.685 300.827 458.685 308.965C458.685 317.102 465.14 323.699 473.103 323.699Z" fill="#6C63FF"/>
<path d="M535.823 467.622H524.774L519.518 424.074L535.824 424.075L535.823 467.622Z" fill="#FFB8B8"/>
<path d="M516.883 464.396H538.189V478.105H503.467C503.467 476.305 503.815 474.522 504.489 472.859C505.163 471.195 506.151 469.684 507.397 468.411C508.642 467.138 510.121 466.128 511.749 465.439C513.377 464.75 515.121 464.396 516.883 464.396Z" fill="#2F2E41"/>
<path d="M590.793 467.622H579.745L574.488 424.074L590.794 424.075L590.793 467.622Z" fill="#FFB8B8"/>
<path d="M571.853 464.396H593.16V478.105H558.438C558.438 476.305 558.785 474.522 559.459 472.859C560.133 471.195 561.121 469.684 562.367 468.411C563.613 467.138 565.092 466.128 566.719 465.439C568.347 464.75 570.091 464.396 571.853 464.396Z" fill="#2F2E41"/>
<path d="M480.401 311.884C479.606 310.687 479.077 309.327 478.853 307.899C478.628 306.471 478.712 305.01 479.1 303.619C479.487 302.228 480.169 300.941 481.096 299.848C482.023 298.755 483.173 297.883 484.465 297.294L522.021 191.512L540.501 201.818L497.62 302.907C498.445 305.191 498.422 307.706 497.554 309.974C496.686 312.241 495.035 314.105 492.912 315.212C490.79 316.318 488.344 316.59 486.038 315.977C483.732 315.364 481.726 313.907 480.401 311.884Z" fill="#FFB8B8"/>
<path d="M585.149 331.761C583.921 331.041 582.863 330.055 582.048 328.873C581.234 327.69 580.683 326.339 580.434 324.915C580.185 323.492 580.245 322.029 580.61 320.632C580.974 319.234 581.634 317.935 582.542 316.826L570.908 204.927L591.938 205.909L596.774 315.977C598.495 317.66 599.553 319.93 599.746 322.357C599.939 324.784 599.255 327.2 597.822 329.145C596.389 331.091 594.307 332.431 591.972 332.913C589.636 333.396 587.209 332.985 585.149 331.761Z" fill="#FFB8B8"/>
<path d="M551.599 171.918C563.823 171.918 573.732 161.792 573.732 149.3C573.732 136.808 563.823 126.682 551.599 126.682C539.375 126.682 529.466 136.808 529.466 149.3C529.466 161.792 539.375 171.918 551.599 171.918Z" fill="#FFB8B8"/>
<path d="M585.008 306.311H518.281L518.361 305.781C518.481 304.987 530.253 226.178 521.571 200.396C520.699 197.862 520.776 195.088 521.786 192.609C522.795 190.13 524.667 188.119 527.04 186.966H527.04C539.45 180.993 563.273 173.639 583.38 191.486C586.339 194.156 588.649 197.492 590.129 201.232C591.608 204.971 592.216 209.011 591.904 213.032L585.008 306.311Z" fill="#6C63FF"/>
<path d="M531.096 237.825L501.055 231.597L515.137 197.496C515.979 194.193 518.07 191.366 520.949 189.636C523.828 187.906 527.261 187.414 530.495 188.267C533.729 189.12 536.5 191.249 538.2 194.187C539.9 197.126 540.39 200.633 539.563 203.94L531.096 237.825Z" fill="#6C63FF"/>
<path d="M569.572 249.39L567.766 207.082C566.396 199.128 570.851 191.61 577.703 190.381C584.557 189.157 591.249 194.673 592.625 202.684L599.413 242.217L569.572 249.39Z" fill="#6C63FF"/>
<path d="M582.788 301.246C593.525 343.034 594.696 396.164 591.799 454.117L577.381 452.275L551.248 341.766L536.829 454.117L520.608 453.196C515.763 392.389 511.044 340.187 518.806 305.851L582.788 301.246Z" fill="#2F2E41"/>
<path d="M566.182 166.78C562.053 171.275 554.385 168.862 553.847 162.722C553.805 162.245 553.808 161.765 553.856 161.289C554.134 158.569 555.672 156.1 555.303 153.228C555.22 152.513 554.959 151.832 554.546 151.249C551.256 146.746 543.532 153.263 540.427 149.187C538.523 146.687 540.761 142.752 539.3 139.959C537.371 136.272 531.659 138.09 528.077 136.071C524.092 133.825 524.33 127.576 526.954 123.775C530.153 119.139 535.763 116.666 541.303 116.309C546.843 115.953 552.345 117.483 557.517 119.543C563.393 121.883 569.22 125.118 572.837 130.398C577.235 136.82 577.658 145.453 575.458 152.962C574.12 157.53 569.554 163.11 566.182 166.78Z" fill="#2F2E41"/>
<path d="M756.949 478.544H91.6357C91.3517 478.543 91.0796 478.427 90.879 478.222C90.6785 478.016 90.5659 477.738 90.5659 477.448C90.5659 477.157 90.6785 476.879 90.879 476.673C91.0796 476.468 91.3517 476.352 91.6357 476.351H756.949C757.233 476.352 757.505 476.468 757.706 476.673C757.906 476.879 758.019 477.157 758.019 477.448C758.019 477.738 757.906 478.016 757.706 478.222C757.505 478.427 757.233 478.543 756.949 478.544Z" fill="#3F3D56"/>
<path d="M422.639 378.033H305.49C303.947 378.041 302.464 377.424 301.366 376.317C300.267 375.209 299.644 373.702 299.632 372.125V104.906C299.644 103.329 300.267 101.821 301.366 100.714C302.464 99.6064 303.947 98.9892 305.49 98.9976H422.639C424.182 98.9892 425.665 99.6064 426.763 100.714C427.861 101.821 428.485 103.329 428.497 104.906V372.125C428.485 373.702 427.861 375.209 426.763 376.317C425.665 377.424 424.182 378.041 422.639 378.033Z" fill="white"/>
<path d="M428.497 185.461H299.632V187.303H428.497V185.461Z" fill="#CCCCCC"/>
<path d="M428.947 290.547H300.083V292.388H428.947V290.547Z" fill="#CCCCCC"/>
<path d="M341.986 98.9977H340.184V378.954H341.986V98.9977Z" fill="#CCCCCC"/>
<path d="M387.044 98.9977H385.241V378.954H387.044V98.9977Z" fill="#CCCCCC"/>
</g>
<defs>
<clipPath id="clip0_24_602">
<rect width="784" height="479" fill="white"/>
</clipPath>
</defs>
</svg>
