<svg width="721" height="856" viewBox="0 0 721 856" fill="none" xmlns="http://www.w3.org/2000/svg">
<g clip-path="url(#clip0_28_174)">
<path d="M721 770.816C721 796.796 559.599 856 360.5 856C161.401 856 0 796.796 0 770.816C0 744.835 161.401 761.916 360.5 761.916C559.599 761.916 721 744.835 721 770.816Z" fill="#3F3D56"/>
<path opacity="0.1" d="M721 770.816C721 796.796 559.599 856 360.5 856C161.401 856 0 796.796 0 770.816C0 744.835 161.401 761.916 360.5 761.916C559.599 761.916 721 744.835 721 770.816Z" fill="black"/>
<path d="M102.667 424.995C111.043 424.995 117.833 417.595 117.833 408.467C117.833 399.339 111.043 391.939 102.667 391.939C94.2903 391.939 87.5 399.339 87.5 408.467C87.5 417.595 94.2903 424.995 102.667 424.995Z" fill="#6C63FF"/>
<path d="M169.167 561.035C177.543 561.035 184.333 553.635 184.333 544.507C184.333 535.379 177.543 527.979 169.167 527.979C160.79 527.979 154 535.379 154 544.507C154 553.635 160.79 561.035 169.167 561.035Z" fill="#6C63FF"/>
<path d="M117.833 526.707C126.21 526.707 133 519.307 133 510.179C133 501.051 126.21 493.651 117.833 493.651C109.457 493.651 102.667 501.051 102.667 510.179C102.667 519.307 109.457 526.707 117.833 526.707Z" fill="#6C63FF"/>
<path d="M122.671 744.779C122.403 744.303 116.09 732.815 113.902 708.962C111.894 687.077 113.185 650.189 130.74 598.734C163.996 501.254 123.075 422.602 122.657 421.819L124.676 420.542C124.782 420.741 135.341 440.794 141.579 472.726C149.821 515.06 146.82 559.078 132.927 599.62C99.7272 696.933 124.409 743 124.662 743.455L122.671 744.779Z" fill="#CFCCE0"/>
<path d="M109.667 417.367C106.436 417.367 103.278 416.323 100.592 414.367C97.9063 412.411 95.8128 409.631 94.5766 406.379C93.3404 403.126 93.0169 399.547 93.6472 396.095C94.2774 392.642 95.833 389.47 98.1172 386.981C100.402 384.492 103.312 382.796 106.48 382.11C109.649 381.423 112.933 381.775 115.917 383.122C118.902 384.47 121.453 386.751 123.247 389.678C125.042 392.605 126 396.047 126 399.567C125.995 404.286 124.273 408.811 121.211 412.148C118.149 415.484 113.997 417.361 109.667 417.367ZM109.667 384.31C106.898 384.31 104.191 385.205 101.889 386.882C99.5864 388.558 97.792 390.941 96.7324 393.729C95.6727 396.516 95.3955 399.584 95.9357 402.544C96.4759 405.503 97.8092 408.222 99.7672 410.355C101.725 412.489 104.22 413.942 106.935 414.531C109.651 415.119 112.466 414.817 115.024 413.663C117.582 412.508 119.769 410.552 121.307 408.043C122.846 405.534 123.667 402.585 123.667 399.567C123.662 395.522 122.186 391.644 119.561 388.784C116.937 385.924 113.378 384.315 109.667 384.31Z" fill="#CFCCE0"/>
<path d="M157.5 477.122C165.876 477.122 172.667 469.722 172.667 460.594C172.667 451.466 165.876 444.066 157.5 444.066C149.124 444.066 142.333 451.466 142.333 460.594C142.333 469.722 149.124 477.122 157.5 477.122Z" fill="#CFCCE0"/>
<path d="M124.833 519.079C121.603 519.079 118.445 518.035 115.759 516.079C113.073 514.123 110.98 511.343 109.743 508.091C108.507 504.838 108.184 501.26 108.814 497.807C109.444 494.354 111 491.182 113.284 488.693C115.568 486.204 118.479 484.509 121.647 483.822C124.815 483.135 128.099 483.487 131.084 484.835C134.068 486.182 136.619 488.463 138.414 491.39C140.209 494.318 141.167 497.759 141.167 501.279C141.162 505.998 139.439 510.523 136.377 513.86C133.315 517.197 129.164 519.074 124.833 519.079ZM124.833 486.023C122.064 486.023 119.358 486.917 117.055 488.594C114.753 490.27 112.959 492.653 111.899 495.441C110.839 498.229 110.562 501.296 111.102 504.256C111.642 507.215 112.976 509.934 114.934 512.068C116.892 514.201 119.386 515.654 122.102 516.243C124.818 516.832 127.633 516.53 130.191 515.375C132.749 514.22 134.936 512.265 136.474 509.756C138.012 507.247 138.833 504.297 138.833 501.279C138.829 497.234 137.353 493.356 134.728 490.496C132.104 487.636 128.545 486.027 124.833 486.023V486.023Z" fill="#CFCCE0"/>
<path d="M164.5 553.407C161.27 553.407 158.112 552.363 155.426 550.407C152.74 548.451 150.646 545.671 149.41 542.419C148.174 539.166 147.85 535.587 148.481 532.134C149.111 528.682 150.666 525.51 152.951 523.021C155.235 520.531 158.145 518.836 161.314 518.149C164.482 517.463 167.766 517.815 170.751 519.162C173.735 520.509 176.286 522.791 178.081 525.718C179.875 528.645 180.833 532.087 180.833 535.607C180.829 540.326 179.106 544.85 176.044 548.187C172.982 551.524 168.83 553.401 164.5 553.407ZM164.5 520.35C161.731 520.35 159.024 521.245 156.722 522.921C154.42 524.598 152.625 526.981 151.566 529.768C150.506 532.556 150.229 535.624 150.769 538.583C151.309 541.543 152.643 544.261 154.601 546.395C156.558 548.529 159.053 549.982 161.769 550.571C164.485 551.159 167.299 550.857 169.858 549.702C172.416 548.548 174.602 546.592 176.141 544.083C177.679 541.574 178.5 538.624 178.5 535.607C178.496 531.562 177.02 527.684 174.395 524.824C171.77 521.964 168.212 520.355 164.5 520.35Z" fill="#CFCCE0"/>
<path d="M113.167 605.534C121.543 605.534 128.333 598.134 128.333 589.006C128.333 579.878 121.543 572.478 113.167 572.478C104.79 572.478 98 579.878 98 589.006C98 598.134 104.79 605.534 113.167 605.534Z" fill="#CFCCE0"/>
<path d="M131.833 745.388C131.833 745.388 116.667 704.703 162.167 674.189L131.833 745.388Z" fill="#CFCCE0"/>
<path d="M113.181 744.65C113.181 744.65 106.278 701.385 52.8541 701.756L113.181 744.65Z" fill="#CFCCE0"/>
<path d="M660.727 760.645H402.574C402.574 760.645 397.342 677.007 428.303 676.056C459.263 675.106 455.775 713.123 494.585 660.85C533.395 608.576 580.491 611.427 586.596 642.316C592.701 673.205 574.822 697.916 607.527 690.313C640.232 682.709 687.327 702.668 660.727 760.645Z" fill="#6C63FF"/>
<path d="M527.293 760.664L526.422 760.626C528.454 705.559 539.037 670.179 547.556 650.195C556.807 628.496 565.722 619.712 565.811 619.626L566.39 620.336C566.302 620.422 557.492 629.118 548.315 650.67C539.842 670.569 529.318 705.805 527.293 760.664Z" fill="#F2F2F2"/>
<path d="M620.725 760.778L619.888 760.512C629.97 722.802 653.71 698.993 653.949 698.757L654.535 699.461C654.298 699.695 630.735 723.336 620.725 760.778Z" fill="#F2F2F2"/>
<path d="M443.235 760.711L442.371 760.58C445.791 733.697 439.613 712.839 433.827 700.076C427.563 686.257 420.415 678.709 420.343 678.634L420.947 677.948C421.019 678.024 428.278 685.688 434.609 699.655C440.448 712.538 446.685 733.588 443.235 760.711Z" fill="#F2F2F2"/>
<path d="M695.763 761.916H374.73L374.656 760.731C374.472 757.783 370.376 688.241 391.053 663.429C395.675 657.882 401.243 654.97 407.601 654.775C421.079 654.357 429.549 659.859 436.38 664.275C449.256 672.599 457.762 678.099 488.69 636.442C522.194 591.314 558.343 581.605 579.125 587.004C592.552 590.493 601.806 600.353 604.514 614.056C607.079 627.032 606.262 639.225 605.606 649.022C604.904 659.504 604.349 667.784 608.299 671.536C611.597 674.666 618.179 674.951 629.013 672.431C651.049 667.309 681.797 671.692 697.23 693.423C705.534 705.114 712.074 726.365 696.086 761.213L695.763 761.916ZM376.921 759.373H694.319C706.233 733.031 706.605 710.777 695.385 694.979C681.227 675.045 651.525 669.797 629.5 674.918C617.73 677.656 610.716 677.204 606.766 673.453C601.936 668.866 602.529 660.027 603.278 648.837C603.924 639.202 604.728 627.211 602.234 614.591C599.722 601.884 591.102 592.73 578.584 589.478C558.465 584.247 523.326 593.833 490.504 638.041C458.309 681.405 448.61 675.138 435.19 666.462C428.274 661.992 420.422 656.923 407.667 657.317C401.967 657.492 396.959 660.123 392.78 665.138C374.197 687.438 376.466 749.972 376.921 759.373Z" fill="#CFCCE0"/>
<path d="M360.5 817.858C559.599 817.858 721 796.797 721 770.816C721 744.836 559.599 723.774 360.5 723.774C161.401 723.774 0 744.836 0 770.816C0 796.797 161.401 817.858 360.5 817.858Z" fill="#3F3D56"/>
<path d="M368.427 155.427C368.427 155.427 350.404 148.413 338.818 176.471C327.233 204.528 309.21 235.392 309.21 235.392L319.509 238.198C319.509 238.198 322.083 218.557 328.52 215.752L325.945 241.004C325.945 241.004 403.185 270.464 437.943 238.198L436.655 228.378C436.655 228.378 441.805 229.78 441.805 238.198L445.667 233.989C445.667 233.989 441.805 225.572 430.219 214.349C422.614 206.982 420.001 192.968 419.103 184.206C418.43 176.889 415.744 169.965 411.397 164.342C403.697 154.617 389.668 144.282 368.427 155.427Z" fill="#2F2E41"/>
<path d="M349.417 265.434L330.75 240.006L316.75 187.879L370.417 125.58C370.417 125.58 382.083 77.267 371.583 79.8099C361.083 82.3527 358.75 117.952 358.75 117.952L291.083 175.165C291.083 175.165 298.083 255.263 317.917 283.234L333.083 335.361L349.417 265.434Z" fill="#FFB9B9"/>
<path d="M400.75 265.434L419.417 240.006L433.417 187.879L379.75 125.58C379.75 125.58 368.083 77.267 378.583 79.8099C389.083 82.3527 391.417 117.952 391.417 117.952L459.083 175.165C459.083 175.165 452.083 255.263 432.25 283.234L417.083 335.361L400.75 265.434Z" fill="#FFB9B9"/>
<path d="M375.083 243.821C391.836 243.821 405.417 229.021 405.417 210.764C405.417 192.508 391.836 177.708 375.083 177.708C358.331 177.708 344.75 192.508 344.75 210.764C344.75 229.021 358.331 243.821 375.083 243.821Z" fill="#FFB9B9"/>
<path d="M361.083 228.564C361.083 228.564 362.25 255.263 355.25 264.163C348.25 273.063 341.25 318.833 375.083 320.105C408.917 321.376 405.417 281.963 405.417 281.963L398.417 260.349C398.417 260.349 387.917 243.821 391.417 228.564H361.083Z" fill="#FFB9B9"/>
<path d="M329.583 524.8L354.667 533.064C354.667 533.064 375.083 519.715 375.083 532.429C375.083 545.143 368.083 561.671 370.417 573.113C372.75 584.556 377.417 612.527 370.417 612.527C363.417 612.527 349.417 562.942 349.417 562.942L326.083 548.957L329.583 524.8Z" fill="#FFB9B9"/>
<path d="M361.083 702.796L351.75 742.21C351.75 742.21 343.583 753.652 351.75 758.738C355.582 761.124 358.387 766.03 360.284 770.566C361.938 774.651 364.706 778.082 368.211 780.393C371.717 782.704 375.79 783.783 379.878 783.484C383.86 783.123 387.214 781.408 388.03 776.949C388.256 775.55 388.212 774.115 387.901 772.736C387.59 771.357 387.019 770.063 386.224 768.937C377.618 756.264 375.667 747.931 375.667 747.931L379.167 703.432L361.083 702.796Z" fill="#FFB9B9"/>
<path d="M338.492 216.635C338.492 216.635 348.791 201.203 357.802 198.398C366.814 195.592 368.101 181.563 368.101 181.563C368.101 181.563 391.273 209.621 405.434 211.024C419.594 212.426 406.721 177.354 406.721 177.354L380.974 170.34L356.515 173.145L337.205 187.174L338.492 216.635Z" fill="#2F2E41"/>
<path d="M319.083 428.174L314.417 438.345C314.417 438.345 201.25 477.758 210.583 514.629C219.917 551.5 272.417 541.328 272.417 541.328L330.75 552.771L336.583 524.8L295.75 513.358L365.75 485.387L368.083 615.07L358.75 707.882L382.083 710.425C382.083 710.425 407.75 625.241 404.25 589.642C404.25 589.642 447.417 444.702 422.917 423.088C398.417 401.474 319.083 428.174 319.083 428.174Z" fill="#2F2E41"/>
<path d="M376.451 281.98L358.247 258.004L345.917 264.163L333.083 308.662C333.083 308.662 322.583 330.276 335.417 353.161C335.417 353.161 337.75 368.418 334.25 372.232C330.75 376.047 329.583 400.203 329.583 400.203L314.417 431.988C314.417 431.988 400.75 448.516 426.417 425.631C426.417 425.631 412.948 371.519 421.115 354.99C429.282 338.462 430.448 313.124 421.115 301.681C411.782 290.239 401.917 260.349 401.917 260.349L396.267 256.411L376.451 281.98Z" fill="#CFCCE0"/>
<path d="M444.51 92.1572H433.321V79.9634H432.304V92.1572H421.115V93.2651H432.304V105.459H433.321V93.2651H444.51V92.1572Z" fill="#CFCCE0"/>
<path d="M338.168 66.6616H326.979V54.4678H325.962V66.6616H314.773V67.7695H325.962V79.9633H326.979V67.7695H338.168V66.6616Z" fill="#CFCCE0"/>
<path d="M389.212 12.1938H378.024V0H377.006V12.1938H365.817V13.3017H377.006V25.4955H378.024V13.3017H389.212V12.1938Z" fill="#CFCCE0"/>
</g>
<defs>
<clipPath id="clip0_28_174">
<rect width="721" height="856" fill="white"/>
</clipPath>
</defs>
</svg>
