<svg width="341" height="589" viewBox="0 0 341 589" fill="none" xmlns="http://www.w3.org/2000/svg">
<g clip-path="url(#clip0_39_1561)">
<path d="M341 587.926C341 588.067 340.978 588.207 340.933 588.337C340.889 588.468 340.824 588.586 340.742 588.686C340.66 588.786 340.563 588.865 340.455 588.919C340.348 588.973 340.233 589 340.117 589H-131.117C-131.351 589 -131.576 588.887 -131.741 588.685C-131.907 588.484 -132 588.211 -132 587.926C-132 587.641 -131.907 587.368 -131.741 587.166C-131.576 586.965 -131.351 586.851 -131.117 586.851H340.117C340.233 586.851 340.348 586.879 340.455 586.932C340.563 586.986 340.66 587.065 340.742 587.165C340.824 587.265 340.889 587.384 340.933 587.514C340.978 587.645 341 587.785 341 587.926V587.926Z" fill="#CCCCCC"/>
<path d="M251.563 26.6106C250.981 22.6699 249.541 18.9912 247.394 15.9582C244.34 11.7277 240.631 8.2707 236.479 5.78469C232.327 3.29869 227.813 1.83233 223.195 1.46936C218.578 1.10639 213.946 1.85391 209.566 3.66924C205.186 5.48456 201.142 8.33214 197.666 12.0494L197.369 12.3744C193.22 7.47972 188.163 3.8746 182.625 1.86453C177.088 -0.145531 171.234 -0.501279 165.56 0.827447C159.885 2.15617 154.558 5.13021 150.029 9.49748C145.499 13.8648 141.902 19.4965 139.542 25.9155C137.373 31.7895 136.378 38.2054 136.64 44.6375C136.902 51.0695 138.412 57.3344 141.047 62.9189C142.23 65.4368 143.619 67.8021 145.194 69.9783C146.818 72.2351 190.671 131.608 191.109 132.204C191.161 132.278 191.226 132.338 191.299 132.378C191.372 132.419 191.452 132.439 191.532 132.439C191.547 132.439 191.569 132.43 191.591 132.43C191.622 132.43 191.653 132.42 191.68 132.403C191.825 132.36 191.95 132.25 192.029 132.096L192.259 131.636L192.533 131.067L196.591 122.816C207.843 99.9312 223.012 78.3377 241.682 58.6399C242.885 57.3695 243.998 55.9806 245.013 54.4873C249.008 48.6749 251.418 41.4946 251.911 33.9409C252.052 31.4893 251.935 29.0259 251.563 26.6106Z" fill="#6C63FF"/>
<path d="M50.3694 490.761L58.6283 458.027C48.6913 444.717 36.2349 434.56 22.3406 428.439C35.9153 455.809 22.7614 491.513 28.2428 522.779C30.0138 532.514 33.5623 541.64 38.6252 549.48C43.6881 557.32 50.1357 563.672 57.4902 568.067L70.023 586.966C76.5933 572.995 80.5968 557.458 81.7579 541.423C82.9189 525.388 81.2098 509.238 76.7483 494.085C74.1762 485.614 70.7379 477.571 66.5144 470.146C59.0668 480.801 50.3694 490.761 50.3694 490.761Z" fill="#F2F2F2"/>
<path d="M4.95765 494.943L0.35418 461.162C-13.4173 454.643 -28.2883 452.313 -42.9675 454.375C-20.7877 471.505 -19.4771 510.601 -3.11351 535.61C2.03925 543.363 8.55941 549.605 15.9638 553.874C23.3682 558.143 31.4671 560.329 39.6601 560.271L57.803 570.383C58.5642 554.313 56.4537 538.233 51.6169 523.251C46.7802 508.27 39.3321 494.742 29.7859 483.601C24.3796 477.415 18.3548 472.082 11.8536 467.729C9.09247 481.308 4.95765 494.943 4.95765 494.943Z" fill="#F2F2F2"/>
<path d="M95.6248 273.419L93.3446 279.873L97.0712 302.799L135.09 296.365L134.787 268.411L134.024 262.288L95.6248 273.419Z" fill="#FFB6B6"/>
<path d="M75.9821 570.537H84.37L88.3614 531.163H75.9821V570.537Z" fill="#FFB6B6"/>
<path d="M99.3843 580.269L86.6484 569.561V562.568L85.1678 562.681L75.9819 563.346L73.248 563.541L71.5571 588.224H77.5718L78.6401 581.313L81.3909 588.224H97.3485C98.1128 588.223 98.8571 587.925 99.4725 587.374C100.088 586.822 100.543 586.046 100.77 585.158C100.997 584.269 100.985 583.316 100.736 582.437C100.487 581.557 100.013 580.798 99.3843 580.269V580.269Z" fill="#2F2E41"/>
<path d="M123.097 570.537H131.485L136.419 512.569L120.658 511.423L123.097 570.537Z" fill="#FFB6B6"/>
<path d="M146.5 580.269L133.764 569.561V562.568L132.149 562.681L122.803 563.367L120.364 563.541L118.673 588.224H124.688L125.756 581.313L128.507 588.224H144.464C145.229 588.223 145.973 587.925 146.588 587.374C147.204 586.822 147.658 586.046 147.886 585.158C148.113 584.269 148.101 583.316 147.852 582.437C147.603 581.557 147.129 580.798 146.5 580.269V580.269Z" fill="#2F2E41"/>
<path d="M72.4217 536.582H72.4543L74.0675 472.561C73.0236 470.111 72.4938 467.384 72.5253 464.624C72.5568 461.864 73.1486 459.156 74.248 456.741L74.4789 456.233L73.8801 452.854C73.111 448.514 73.4639 443.991 74.8905 439.904L76.3954 380.184C71.019 337.779 96.6414 310.124 96.6414 310.124L94.2864 287.898L135.729 289.044L135.024 310.124L143.264 344.579C147.601 395.999 147.859 446.374 143.423 495.546C143.414 495.687 143.431 495.829 143.473 495.961C143.923 497.627 144.082 499.389 143.938 501.134C143.795 502.879 143.353 504.567 142.64 506.091C142.456 506.48 142.329 506.906 142.265 507.348C141.351 515.969 141.232 505.064 140.021 513.609L140.256 513.754C141.105 514.11 141.469 515.541 141.07 516.949C140.67 518.358 139.658 519.21 138.81 518.854L116.656 519.142C115.807 518.786 115.443 517.355 115.843 515.947C116.242 514.538 117.254 513.685 118.102 514.042L119.481 514.89L117.175 505.709L116.366 504.79C115.979 504.35 115.679 503.809 115.487 503.208C115.296 502.607 115.219 501.961 115.262 501.318C115.305 500.675 115.467 500.053 115.735 499.497C116.004 498.941 116.372 498.467 116.813 498.109V498.109L117.483 471.453L117.809 460.169L117.137 447.367L114.03 389.785L102.269 460.595L90.2563 537.295C90.5365 537.603 90.7471 537.993 90.8678 538.428C90.9884 538.863 91.0151 539.329 90.9454 539.78C90.8348 540.411 90.5475 540.975 90.1326 541.376C89.7177 541.777 89.201 541.99 88.6713 541.978H72.3631C72.0212 541.977 71.684 541.881 71.3777 541.696C71.0714 541.511 70.8044 541.242 70.5974 540.911C70.3903 540.58 70.249 540.195 70.1842 539.787C70.1194 539.378 70.133 538.957 70.224 538.556C70.3616 537.979 70.6513 537.473 71.0485 537.116C71.4457 536.76 71.9283 536.572 72.4217 536.582Z" fill="#2F2E41"/>
<path d="M86.9242 164.481C86.923 168.569 87.7462 172.594 89.3217 176.204C90.8971 179.814 93.1766 182.898 95.9601 185.185C98.7435 187.473 101.946 188.894 105.286 189.323C108.626 189.753 112.001 189.178 115.116 187.65C118.231 186.121 120.99 183.685 123.151 180.556C125.312 177.426 126.808 173.699 127.509 169.702C128.21 165.704 128.094 161.559 127.171 157.628C126.248 153.698 124.547 150.104 122.216 147.161L122.117 147.041C121.953 146.831 121.789 146.622 121.617 146.422C121.616 146.422 121.614 146.422 121.613 146.421C121.612 146.421 121.612 146.42 121.611 146.419C121.61 146.418 121.609 146.417 121.609 146.416C121.609 146.415 121.608 146.413 121.608 146.412C121.373 146.203 121.156 145.965 120.96 145.703C118.19 140.992 115.05 137.042 107.443 139.51C96.4906 143.063 86.9242 150.687 86.9242 164.481Z" fill="#2F2E41"/>
<path d="M199.636 153.791C199.682 155.127 199.488 156.459 199.065 157.694C198.643 158.928 198.004 160.035 197.192 160.936C196.38 161.838 195.416 162.511 194.367 162.91C193.318 163.308 192.21 163.422 191.121 163.243L138.206 216.095L130.123 198.806L184.679 152.29C185.047 150.084 186.068 148.119 187.547 146.767C189.026 145.415 190.861 144.771 192.705 144.956C194.549 145.141 196.273 146.142 197.55 147.771C198.827 149.399 199.57 151.541 199.636 153.791V153.791Z" fill="#FFB6B6"/>
<path d="M115.862 231.682C115.862 231.682 117.586 236.035 124.29 229.852C129.658 224.902 155.282 203.544 160.974 194.516C162.168 195.173 163.508 195.328 164.782 194.956C166.057 194.584 167.193 193.706 168.013 192.462L154.013 176.057C149.62 176.418 149.575 179.996 149.951 182.05L138.7 187.491L109.396 207.981L114.57 228.563L115.862 231.682Z" fill="#E6E6E6"/>
<path d="M112.498 191.198C122 191.198 129.703 181.823 129.703 170.259C129.703 158.694 122 149.319 112.498 149.319C102.995 149.319 95.2922 158.694 95.2922 170.259C95.2922 181.823 102.995 191.198 112.498 191.198Z" fill="#FFB7B7"/>
<path d="M135.968 274.123L136.145 262.442C136.843 261.275 142.698 251.088 141.386 240.912C140.772 236.121 138.635 232.097 135.051 228.965L132.738 222.412L129.314 212.728L119.296 205.469L117.908 202.029L116.764 199.173L102.943 197.494L99.5357 203.074L99.4684 203.084C96.3377 203.95 93.397 205.626 90.846 207.998C88.0453 210.584 85.7751 213.925 84.2134 217.758C82.6517 221.591 81.8411 225.812 81.8451 230.091L81.9292 243.666L81.946 245.611L81.9544 247.495L90.5768 275.74L90.9049 276.836L94.2866 287.903L93.7061 289.07C93.0812 290.34 92.8504 291.84 93.0556 293.299C93.2608 294.758 93.8884 296.08 94.8249 297.024L95.2287 303.945L95.9606 303.699L100.125 302.287L131.619 291.588C132.805 291.185 133.852 290.327 134.606 289.141C134.633 289.099 134.658 289.054 134.681 289.008C134.806 288.82 134.916 288.618 135.009 288.404C135.724 286.203 135.8 285.609 135.808 284.995C136.854 283.545 137.458 281.702 137.519 279.775C137.58 277.847 137.095 275.953 136.145 274.409L135.968 274.123Z" fill="#E6E6E6"/>
<path d="M94.4913 175.748C94.6473 175.718 94.8032 175.678 94.9591 175.648C97.643 175.069 100.327 174.5 103.002 173.91L103.249 166.529L106.49 173.141C113.885 176.128 120.804 174.44 127.312 170.714C129.459 169.474 131.542 168.076 133.55 166.529C134.211 154.045 130.064 146.053 122.347 146.891C122.065 146.922 121.863 146.572 121.617 146.422C121.615 146.422 121.614 146.422 121.613 146.421C121.612 146.421 121.612 146.42 121.611 146.419C121.61 146.418 121.609 146.417 121.609 146.416C121.609 146.414 121.608 146.413 121.608 146.412C121.19 146.172 120.763 145.942 120.336 145.733C116.995 144.144 113.352 143.741 109.83 144.572C106.308 145.403 103.053 147.434 100.442 150.427C95.189 156.53 92.8253 166.609 94.4913 175.748Z" fill="#2F2E41"/>
<path d="M105.702 140.112C105.53 140.833 105.189 141.479 104.722 141.969C104.255 142.46 103.68 142.775 103.069 142.876C100.755 146.357 98.1055 150.043 94.4799 150.739C93.4436 151.006 92.3625 150.779 91.46 150.104C91.3499 150.02 91.2483 149.92 91.1571 149.807C90.2991 148.814 90.2319 146.818 91.2497 146.07C86.6904 148.272 84.0238 154.261 83.3508 160.168C82.6778 166.075 83.6116 172.043 84.2256 177.961C84.8397 183.878 85.1089 190.092 83.1994 195.59C80.9449 202.07 75.7631 206.728 70.1103 208.213C69.6055 208.346 69.1008 208.459 68.5876 208.53C68.2467 205.72 67.3899 203.04 66.0808 200.688C66.4271 203.41 66.2221 206.193 65.4836 208.796C61.2328 208.725 57.0583 207.412 53.3113 204.968C48.1884 201.681 43.9235 196.665 40.4325 191.044C46.4471 196.235 54.7582 198.18 61.3028 194.075C67.1576 190.389 70.6149 182.649 72.1291 174.848C73.6432 167.037 67.279 157.467 67.9688 149.492C68.667 141.516 76.5707 134.748 80.8944 128.697C83.6536 124.837 87.725 121.981 91.9227 122.462C93.3403 122.627 94.7121 123.161 95.9447 124.029C97.1774 124.897 98.2419 126.078 99.0657 127.491C99.8896 128.905 100.453 130.518 100.719 132.221C100.984 133.923 100.945 135.676 100.604 137.358C101.798 135.3 104.886 135.751 105.651 138.095C105.857 138.741 105.874 139.452 105.702 140.112V140.112Z" fill="#2F2E41"/>
<path d="M94.9592 175.648C94.9592 175.648 100.056 152.495 121.904 147.151C121.928 147.141 122.011 147.101 122.117 147.041C122.183 146.991 122.265 146.941 122.347 146.891C122.101 146.722 121.863 146.572 121.617 146.422C121.615 146.422 121.614 146.422 121.613 146.421C121.612 146.421 121.611 146.42 121.611 146.419C121.61 146.418 121.609 146.417 121.609 146.416C121.609 146.414 121.608 146.413 121.608 146.412C121.395 146.172 121.182 145.932 120.96 145.703L120.336 145.733C120.336 145.733 98.4145 141.508 94.9592 175.648Z" fill="#FD6584"/>
<path d="M149.79 285.984C149.595 285.381 149.267 284.856 148.843 284.465C148.419 284.073 147.914 283.832 147.385 283.766C146.323 283.654 145.255 283.842 144.263 284.316C140.372 285.894 136.878 288.659 134.114 292.347L134.161 294.69C132.863 296.705 132.17 299.199 132.198 301.759C132.225 304.319 132.971 306.79 134.312 308.763C135.069 309.898 136.102 310.712 137.263 311.088C137.844 311.264 138.452 311.246 139.025 311.036C139.597 310.826 140.113 310.432 140.516 309.895C141.679 308.171 141.117 305.574 140.262 303.601C138.77 300.169 136.586 297.255 133.915 295.131C138.375 294.993 142.755 293.668 146.749 291.249C147.634 290.778 148.433 290.096 149.098 289.243C149.426 288.813 149.662 288.289 149.783 287.72C149.904 287.151 149.906 286.554 149.79 285.984V285.984Z" fill="#2F2E41"/>
<path d="M229.759 423.882L221.433 424.283C219.352 428.967 218.241 434.2 218.198 439.525C223.151 432.225 232.639 433.197 239.281 428.267C241.342 426.711 243.09 424.609 244.394 422.118C245.697 419.628 246.524 416.812 246.812 413.88L249.922 407.765C246.07 406.9 242.11 407.062 238.314 408.24C234.519 409.417 230.978 411.582 227.936 414.585C226.243 416.29 224.734 418.248 223.443 420.413C226.62 421.901 229.759 423.882 229.759 423.882Z" fill="#F2F2F2"/>
<path d="M188.221 534.016L179.895 534.417C177.813 539.102 176.702 544.334 176.659 549.66C181.612 542.359 191.1 543.332 197.742 538.402C199.804 536.845 201.551 534.743 202.855 532.253C204.158 529.762 204.985 526.947 205.273 524.015L208.383 517.899C204.531 517.035 200.571 517.197 196.776 518.374C192.98 519.551 189.439 521.716 186.397 524.719C184.704 526.425 183.195 528.383 181.904 530.547C185.081 532.035 188.221 534.016 188.221 534.016Z" fill="#F2F2F2"/>
<path d="M-8.004 378.08L-15.0611 372.689C-18.953 375.124 -22.2976 378.678 -24.8046 383.043C-17.329 380.423 -9.95027 387.747 -2.18157 388.244C0.242393 388.376 2.65974 387.843 4.89133 386.683C7.12292 385.524 9.11155 383.769 10.7098 381.547L16.1146 378.638C13.337 375.277 9.99362 372.689 6.31491 371.051C2.6362 369.414 -1.29042 368.767 -5.19441 369.155C-7.38277 369.398 -9.5372 369.977 -11.6068 370.876C-9.67559 374.287 -8.004 378.08 -8.004 378.08Z" fill="#F2F2F2"/>
<path d="M199.938 142.912C199.772 141.555 200.982 140.588 201.434 139.332C201.725 138.21 201.725 137.007 201.434 135.886C201.173 134.363 200.872 132.747 199.966 131.649C199.04 130.702 197.899 130.12 196.695 129.98C193.768 129.358 190.779 129.294 187.836 129.79L190.068 129.955C188.662 129.846 187.252 130.045 185.904 130.543C185.232 130.801 184.624 131.261 184.135 131.88C183.647 132.499 183.295 133.257 183.11 134.084C182.834 135.762 183.776 137.726 185.176 137.87C184.477 137.696 183.75 137.867 183.153 138.344C182.557 138.821 182.14 139.567 181.994 140.417C181.847 141.267 181.983 142.153 182.372 142.881C182.761 143.61 183.371 144.121 184.069 144.304C183.747 145.364 182.788 145.872 181.967 146.4C181.147 146.929 180.283 147.836 180.422 148.953C180.605 150.431 182.227 150.735 183.454 150.669L196.808 149.96C197.957 150.01 199.1 149.721 200.138 149.118C201.128 148.416 201.819 146.876 201.362 145.597C201.008 144.609 200.069 143.978 199.938 142.912Z" fill="#3F3D56"/>
<path d="M45.0645 287.658C43.2293 297.471 42.357 308.595 47.252 317.376C49.3326 321.143 52.386 323.959 55.929 325.376C59.5153 326.67 63.2967 326.953 66.9861 326.203C75.335 324.795 82.755 319.503 90.9659 317.448C94.5894 316.541 98.4348 316.241 101.923 317.986C104.537 319.294 107.289 321.923 107.302 325.673C107.315 329.524 104.567 332.08 101.833 333.264C98.1865 334.844 94.3964 334.232 90.6136 334.033C86.5395 333.819 82.3852 334.267 79.0006 337.303C76.0897 340.069 73.8573 343.752 72.5462 347.953C70.8451 352.978 70.1546 358.38 69.0668 363.623C68.0945 368.336 66.7191 372.913 64.9631 377.277C61.5177 385.832 56.6877 393.452 50.763 399.679C47.841 402.739 44.2906 405.857 40.3 406.137C37.222 406.354 33.4804 404.78 32.294 400.985C31.8533 399.347 31.8964 397.573 32.416 395.97C32.9356 394.366 33.899 393.034 35.1398 392.203C37.7777 390.583 40.6505 392.894 41.5023 396.065C41.7258 396.797 41.8039 397.582 41.7303 398.357C41.6568 399.131 41.4336 399.874 41.0791 400.524C40.2792 401.976 42.2061 403.333 43.0005 401.891C44.8452 398.543 43.881 394.041 41.6219 391.36C40.5198 389.992 39.0464 389.16 37.4768 389.017C35.9073 388.875 34.3488 389.433 33.0923 390.586C31.7869 391.796 30.7999 393.443 30.2527 395.325C29.7055 397.208 29.6217 399.244 30.0117 401.184C30.9606 405.351 34.3255 408.002 37.6857 408.659C41.8352 409.47 45.8286 407.485 49.1782 404.618C52.5389 401.666 55.5946 398.231 58.279 394.387C63.7365 386.749 67.8391 377.821 70.33 368.163C72.7793 358.611 72.9575 345.993 80.2355 339.542C83.9805 336.222 88.5693 336.59 92.9603 336.895C96.8364 337.164 100.618 337.115 104.174 334.98C107.11 333.216 109.479 329.961 109.528 325.815C109.577 321.628 107.135 318.262 104.258 316.355C96.6561 311.317 87.5276 315.38 80.0598 318.746C72.5499 322.131 63.9756 326.104 55.9945 322.542C52.311 320.8 49.3454 317.351 47.7478 312.952C45.8152 307.965 45.5402 302.305 45.9867 296.892C46.2499 294.026 46.6585 291.183 47.2103 288.378C47.5277 286.681 45.3827 285.957 45.0645 287.658L45.0645 287.658Z" fill="#3F3D56"/>
<path d="M81.9192 342.264C81.2358 341.216 80.7494 340 80.4941 338.699C80.2389 337.398 80.221 336.046 80.4419 334.736C80.6628 333.426 81.1169 332.191 81.7724 331.117C82.4279 330.044 83.2688 329.159 84.2358 328.524L72.9247 287.77L82.1609 244.582L97.0543 252.776L87.8638 285.352L94.7397 332.769C95.5084 334.816 95.6333 337.136 95.0905 339.288C94.5477 341.441 93.3751 343.276 91.7948 344.446C90.2145 345.617 88.3363 346.041 86.5162 345.639C84.6961 345.236 83.0604 344.035 81.9192 342.264L81.9192 342.264Z" fill="#FFB6B6"/>
<path d="M95.5519 208.997C95.5519 208.997 92.0539 206.711 89.6211 216.511C87.6735 224.357 74.4192 266.957 74.1803 278.333C72.8971 278.657 71.7389 279.491 70.8882 280.704C70.0375 281.918 69.5426 283.441 69.4816 285.034L88.732 288.276C92.1099 284.839 90.4169 281.914 89.1195 280.522L95.6761 267.006L109.38 230.517L98.1046 210.595L95.5519 208.997Z" fill="#E6E6E6"/>
<path d="M58.7043 260.132C56.5037 269.073 53.1864 277.55 48.8685 285.264C47.8003 287.16 46.6778 289.007 45.5009 290.807C44.5861 288.783 43.4781 286.899 42.2 285.192C37.7124 279.188 31.6967 275.262 25.859 271.326C20.0213 267.39 14.0947 263.165 9.97048 256.782C8.1198 253.909 6.79464 250.588 6.08365 247.042C5.14903 242.23 5.50506 237.211 7.81195 233.194C11.1647 227.353 17.848 225.295 23.5299 226.983C29.2192 228.671 33.9813 233.483 37.6753 239.007C36.4662 232.219 42.3484 225.665 48.0377 226.261C53.727 226.866 58.2889 232.914 59.8021 239.612C61.3227 246.302 60.3361 253.469 58.7043 260.132Z" fill="#6C63FF"/>
<path d="M168.682 11.7661C165.668 12.3651 162.785 13.7033 160.208 15.6996C157.631 17.6958 155.415 20.3083 153.693 23.3787C151.947 26.5488 150.785 30.1398 150.284 33.9067C149.783 37.6736 149.955 41.5277 150.79 45.2059C151.727 49.4711 153.508 53.3924 155.976 56.6276C156.954 57.9062 158.525 55.9879 157.55 54.7126C155.606 52.1168 154.136 49.0484 153.239 45.7103C152.341 42.3722 152.035 38.8403 152.342 35.3479C152.672 31.9915 153.586 28.759 155.022 25.8654C156.458 22.9718 158.384 20.4834 160.671 18.5655C163.234 16.379 166.179 14.9455 169.274 14.3776C170.685 14.119 170.086 11.509 168.682 11.7661V11.7661Z" fill="#3F3D56"/>
<g opacity="0.2">
<path opacity="0.2" d="M245.013 54.4872C243.998 55.9805 242.884 57.3694 241.682 58.6398C223.012 78.3377 207.843 99.9312 196.591 122.816L192.533 131.067L192.259 131.635C191.303 130.759 190.469 129.702 189.789 128.503C187.192 123.908 187.178 117.869 187.816 112.344C189.745 95.7785 196.67 80.6794 207.242 69.9851C217.814 59.2908 231.278 53.7664 245.013 54.4872V54.4872Z" fill="black"/>
</g>
<g opacity="0.2">
<path opacity="0.2" d="M48.8686 285.264C47.8004 287.16 46.6779 289.007 45.501 290.807C44.5862 288.783 43.4782 286.899 42.2001 285.192C37.7125 279.188 31.6968 275.261 25.8591 271.326C20.0214 267.39 14.0948 263.165 9.97057 256.782C8.11989 253.909 6.79473 250.588 6.08374 247.042C19.2069 249.256 31.2654 257.041 40.1306 269.024C43.68 273.888 46.6239 279.36 48.8686 285.264V285.264Z" fill="black"/>
</g>
<path d="M191.102 131.437C192.74 131.437 194.069 129.82 194.069 127.826C194.069 125.832 192.74 124.215 191.102 124.215C189.463 124.215 188.134 125.832 188.134 127.826C188.134 129.82 189.463 131.437 191.102 131.437Z" fill="#3F3D56"/>
</g>
<defs>
<clipPath id="clip0_39_1561">
<rect width="473" height="589" fill="white" transform="translate(-132)"/>
</clipPath>
</defs>
</svg>
